<?xml version="1.0" encoding="UTF-8" standalone="no"?><!DOCTYPE svg PUBLIC "-//W3C//DTD SVG 1.1//EN" "http://www.w3.org/Graphics/SVG/1.1/DTD/svg11.dtd"><svg width="100%" height="100%" viewBox="0 0 75 68" version="1.1" xmlns="http://www.w3.org/2000/svg" xmlns:xlink="http://www.w3.org/1999/xlink" xml:space="preserve" xmlns:serif="http://www.serif.com/" style="fill-rule:evenodd;clip-rule:evenodd;stroke-linecap:round;stroke-linejoin:round;stroke-miterlimit:1.5;"><g id="Logo"><path d="M71.272,26.7c0,-7.035 -5.711,-12.746 -12.746,-12.746l-43.007,-0c-7.035,-0 -12.747,5.711 -12.747,12.746l0,25.494c0,7.035 5.712,12.747 12.747,12.747l43.007,-0c7.035,-0 12.746,-5.712 12.746,-12.747l0,-25.494Z" style="fill:#fff;stroke:#9b9b9b;stroke-width:5.54px;"/><path d="M21.734,37.091c-0,-1.253 -1.018,-2.271 -2.271,-2.271l-4.542,0c-1.253,0 -2.27,1.018 -2.27,2.271l-0,4.712c-0,1.253 1.017,2.271 2.27,2.271l4.542,-0c1.253,-0 2.271,-1.018 2.271,-2.271l-0,-4.712Z" style="fill:#ffcda3;"/><path d="M35.127,37.091c0,-1.253 -1.017,-2.271 -2.271,-2.271l-4.542,0c-1.253,0 -2.27,1.018 -2.27,2.271l-0,4.712c-0,1.253 1.017,2.271 2.27,2.271l4.542,-0c1.254,-0 2.271,-1.018 2.271,-2.271l0,-4.712Z" style="fill:#ffcda3;"/><path d="M48.52,37.091c0,-1.253 -1.017,-2.271 -2.271,-2.271l-4.541,0c-1.254,0 -2.271,1.018 -2.271,2.271l-0,4.712c-0,1.253 1.017,2.271 2.271,2.271l4.541,-0c1.254,-0 2.271,-1.018 2.271,-2.271l0,-4.712Z" style="fill:#ffcda3;"/><path d="M61.394,37.091c0,-1.253 -1.017,-2.271 -2.271,-2.271l-4.541,0c-1.254,0 -2.271,1.018 -2.271,2.271l-0,4.712c-0,1.253 1.017,2.271 2.271,2.271l4.541,-0c1.254,-0 2.271,-1.018 2.271,-2.271l0,-4.712Z" style="fill:#ffcda3;"/><path d="M71.272,14.546c0,-1.916 -1.556,-3.472 -3.472,-3.472l-61.555,-0c-1.917,-0 -3.473,1.556 -3.473,3.472l0,6.946c0,1.916 1.556,3.472 3.473,3.472l61.555,0c1.916,0 3.472,-1.556 3.472,-3.472l0,-6.946Z" style="fill:#e4e4e4;stroke:#9b9b9b;stroke-width:5.54px;"/><path d="M30.585,4.341c0,-1.475 -1.197,-2.672 -2.672,-2.672l-5.344,-0c-1.474,-0 -2.672,1.197 -2.672,2.672l0,11.352c0,1.474 1.198,2.672 2.672,2.672l5.344,-0c1.475,-0 2.672,-1.198 2.672,-2.672l0,-11.352Z" style="fill:#9b9b9b;stroke:#e4e4e4;stroke-width:3.34px;"/><path d="M53.501,4.258c0,-1.429 -1.16,-2.589 -2.589,-2.589l-5.178,-0c-1.428,-0 -2.588,1.16 -2.588,2.589l-0,11.518c-0,1.428 1.16,2.589 2.588,2.589l5.178,-0c1.429,-0 2.589,-1.161 2.589,-2.589l0,-11.518Z" style="fill:#9b9b9b;stroke:#e4e4e4;stroke-width:3.34px;"/></g></svg>