<?xml version="1.0" encoding="UTF-8" standalone="no"?><!DOCTYPE svg PUBLIC "-//W3C//DTD SVG 1.1//EN" "http://www.w3.org/Graphics/SVG/1.1/DTD/svg11.dtd"><svg width="100%" height="100%" viewBox="0 0 139 73" version="1.1" xmlns="http://www.w3.org/2000/svg" xmlns:xlink="http://www.w3.org/1999/xlink" xml:space="preserve" xmlns:serif="http://www.serif.com/" style="fill-rule:evenodd;clip-rule:evenodd;stroke-linejoin:round;stroke-miterlimit:2;"><g id="Sign-Up-Button" serif:id="Sign Up Button"><path d="M138.978,24.166c0,-8.861 -7.193,-16.054 -16.054,-16.054l-106.87,-0c-8.86,-0 -16.054,7.193 -16.054,16.054l0,32.108c0,8.86 7.194,16.054 16.054,16.054l106.87,0c8.861,0 16.054,-7.194 16.054,-16.054l0,-32.108Z" style="fill:#0756ac;"/><path d="M138.978,16.054c0,-8.86 -7.193,-16.054 -16.054,-16.054l-106.87,0c-8.86,0 -16.054,7.194 -16.054,16.054l0,32.108c0,8.861 7.194,16.054 16.054,16.054l106.87,0c8.861,0 16.054,-7.193 16.054,-16.054l0,-32.108Z" style="fill:#0062cc;"/></g></svg>